<svg width="64" height="64" viewBox="0 0 64 64" fill="none" xmlns="http://www.w3.org/2000/svg">
<path d="M21.0994 15.9091H17.1506C17.179 15.5729 17.16 15.2699 17.0938 15C17.0275 14.7301 16.9138 14.4981 16.7528 14.304C16.5919 14.1051 16.3812 13.9536 16.1207 13.8494C15.8603 13.7453 15.5502 13.6932 15.1903 13.6932C14.4991 13.6932 13.8812 13.866 13.3366 14.2116C12.7921 14.5526 12.34 15.0426 11.9801 15.6818C11.6203 16.3163 11.3646 17.0739 11.2131 17.9545C11.0805 18.8068 11.0758 19.5147 11.1989 20.0781C11.3267 20.6416 11.5753 21.063 11.9446 21.3423C12.3187 21.6217 12.804 21.7614 13.4006 21.7614C13.7983 21.7614 14.1629 21.714 14.4943 21.6193C14.8305 21.5246 15.1288 21.3897 15.3892 21.2145C15.6544 21.0346 15.8793 20.8215 16.0639 20.5753C16.2533 20.3243 16.3977 20.0473 16.4972 19.7443H20.4744C20.3229 20.3598 20.053 20.9896 19.6648 21.6335C19.2765 22.2727 18.7746 22.8622 18.1591 23.402C17.5436 23.937 16.8191 24.3703 15.9858 24.7017C15.1525 25.0331 14.215 25.1989 13.1733 25.1989C11.8097 25.1989 10.633 24.9006 9.64347 24.304C8.65862 23.7074 7.94366 22.8362 7.49858 21.6903C7.05824 20.5445 6.97064 19.1477 7.2358 17.5C7.50095 15.9091 8.02415 14.5762 8.8054 13.5014C9.58665 12.4266 10.536 11.617 11.6534 11.0724C12.7708 10.5279 13.9593 10.2557 15.2188 10.2557C16.1705 10.2557 17.0227 10.3812 17.7756 10.6321C18.5331 10.883 19.17 11.25 19.6861 11.733C20.2069 12.2112 20.5904 12.8007 20.8366 13.5014C21.0829 14.2022 21.1705 15.0047 21.0994 15.9091ZM35.0552 17.983C34.79 19.5644 34.2645 20.8902 33.4785 21.9602C32.6925 23.0303 31.7384 23.8376 30.6163 24.3821C29.4941 24.9266 28.2938 25.1989 27.0154 25.1989C25.6518 25.1989 24.4681 24.9029 23.4643 24.3111C22.4605 23.7192 21.729 22.8527 21.2697 21.7116C20.8104 20.5705 20.7181 19.1761 20.9927 17.5284C21.2484 15.947 21.7692 14.6165 22.5552 13.5369C23.3412 12.4574 24.3 11.6406 25.4316 11.0866C26.5632 10.5327 27.773 10.2557 29.0609 10.2557C30.415 10.2557 31.5916 10.554 32.5907 11.1506C33.5945 11.7472 34.3237 12.6207 34.7782 13.7713C35.2375 14.9219 35.3298 16.3258 35.0552 17.983ZM31.0779 17.5284C31.2105 16.6951 31.22 15.9943 31.1063 15.4261C30.9927 14.8532 30.7536 14.4223 30.389 14.1335C30.0244 13.84 29.5344 13.6932 28.9188 13.6932C28.2181 13.6932 27.5978 13.8636 27.058 14.2045C26.5183 14.5455 26.0708 15.0355 25.7157 15.6747C25.3606 16.3139 25.112 17.0833 24.97 17.983C24.8184 18.8258 24.8042 19.5265 24.9273 20.0852C25.0552 20.6439 25.3061 21.063 25.6802 21.3423C26.059 21.6217 26.5514 21.7614 27.1575 21.7614C27.8487 21.7614 28.4595 21.5956 28.9898 21.2642C29.5249 20.9328 29.9676 20.4522 30.318 19.8224C30.6731 19.1927 30.9264 18.428 31.0779 17.5284ZM34.1175 25L36.5322 10.4545H42.8107C43.8902 10.4545 44.8017 10.651 45.545 11.044C46.2884 11.437 46.8234 12.0028 47.1501 12.7415C47.4768 13.4801 47.555 14.3655 47.3845 15.3977C47.2141 16.4394 46.8376 17.3177 46.2553 18.0327C45.6776 18.7429 44.9413 19.2827 44.0464 19.652C43.1563 20.0166 42.1572 20.1989 41.0493 20.1989H37.2993L37.8107 17.1307H40.7652C41.2292 17.1307 41.6364 17.0739 41.9868 16.9602C42.3372 16.8419 42.6213 16.6572 42.8391 16.4062C43.0569 16.1506 43.1989 15.8144 43.2652 15.3977C43.3315 14.9811 43.2983 14.6425 43.1658 14.3821C43.0332 14.117 42.813 13.9228 42.5053 13.7997C42.1975 13.6719 41.8163 13.608 41.3618 13.608H39.9697L38.0663 25H34.1175ZM43.7482 18.3239L46.2766 25H41.9868L39.5436 18.3239H43.7482ZM15.517 35C15.5597 34.5312 15.446 34.1643 15.1761 33.8991C14.9063 33.6293 14.4517 33.4943 13.8125 33.4943C13.4053 33.4943 13.0644 33.5417 12.7898 33.6364C12.5199 33.7311 12.3092 33.8613 12.1577 34.027C12.0109 34.1927 11.9186 34.3845 11.8807 34.6023C11.8381 34.7727 11.8404 34.929 11.8878 35.071C11.9399 35.2083 12.0369 35.3338 12.179 35.4474C12.3258 35.5611 12.5175 35.6629 12.7543 35.7528C12.9957 35.8428 13.2822 35.9233 13.6136 35.9943L14.75 36.25C15.5265 36.4205 16.1776 36.6454 16.7031 36.9247C17.2334 37.1993 17.6501 37.526 17.9531 37.9048C18.2562 38.2836 18.455 38.7074 18.5497 39.1761C18.6491 39.6449 18.6515 40.1562 18.5568 40.7102C18.3958 41.6667 18.0241 42.4763 17.4418 43.1392C16.8594 43.8021 16.0994 44.3063 15.1619 44.652C14.2244 44.9976 13.1402 45.1705 11.9091 45.1705C10.6496 45.1705 9.57955 44.9834 8.69886 44.6094C7.82292 44.2306 7.18845 43.6529 6.79545 42.8764C6.4072 42.0952 6.3125 41.0985 6.51136 39.8864H10.2614C10.2045 40.3314 10.2519 40.7055 10.4034 41.0085C10.5549 41.3116 10.7988 41.5412 11.1349 41.6974C11.4711 41.8537 11.8902 41.9318 12.392 41.9318C12.8182 41.9318 13.1828 41.8797 13.4858 41.7756C13.7888 41.6714 14.0279 41.527 14.2031 41.3423C14.3783 41.1577 14.4848 40.947 14.5227 40.7102C14.5606 40.4924 14.5227 40.2983 14.4091 40.1278C14.2955 39.9574 14.0895 39.8035 13.7912 39.6662C13.4929 39.5289 13.0833 39.4034 12.5625 39.2898L11.1705 38.9773C9.93466 38.6932 9.00189 38.2244 8.37216 37.571C7.74242 36.9176 7.51989 36.0227 7.70455 34.8864C7.85606 33.9583 8.23722 33.1487 8.84801 32.4574C9.46354 31.7614 10.2448 31.2216 11.1918 30.8381C12.1435 30.4498 13.197 30.2557 14.3523 30.2557C15.5265 30.2557 16.509 30.4522 17.2997 30.8452C18.0952 31.2382 18.6657 31.7898 19.0114 32.5C19.3617 33.2102 19.4564 34.0436 19.2955 35H15.517ZM21.4419 45L19.5669 30.4545H23.9703L24.4817 39.4034H24.5953L28.4305 30.4545H31.8964L32.7771 39.4318H32.8908L36.3567 30.4545H40.7601L34.0555 45H30.2771L29.1692 36.875H29.0555L25.2203 45H21.4419Z" fill="white"/>
<path d="M50 23C50 19.134 53.134 16 57 16H58V50H50V23Z" fill="white"/>
<path d="M8 56V56C8 52.6863 10.6863 50 14 50L58 50V56L8 56Z" fill="white"/>
</svg>
